<?xml version="1.0" encoding="utf-8"?>
<!-- Generator: Adobe Illustrator 24.0.1, SVG Export Plug-In . SVG Version: 6.00 Build 0)  -->
<svg version="1.1" id="Layer_1" xmlns="http://www.w3.org/2000/svg" xmlns:xlink="http://www.w3.org/1999/xlink" x="0px" y="0px"
	 viewBox="0 0 761 250.9" style="enable-background:new 0 0 761 250.9;" xml:space="preserve">
<style type="text/css">
	.st0{fill:#FFFFFF;}
	.st1{fill:#8BD0C7;}
	.st2{fill:#F290BC;}
	.st3{fill:#19344D;}
	.st4{fill:#88D3E4;}
	.st5{fill:#A37DB4;}
	.st6{fill:#17334D;}
</style>
<g>
	<path class="st0" d="M631.1,187.2v56.2h-59.4c17.6-5.9,34.7-16.2,47.4-33.6C624.8,201.9,628.6,194,631.1,187.2"/>
	<path class="st1" d="M627.5,172.1c-1.2,6.5-4.8,19.9-14.5,33.3c-17.7,24.2-46.4,36.9-85.5,37.6v-70.9H627.5z"/>
	<rect x="485.3" y="172.1" class="st2" width="34.6" height="71.3"/>
	<path class="st3" d="M456.5,172.1h-18v12.1h18V172.1z M456.5,187.3h-18v17.3h18V187.3z M456.5,207.5h-18v16.5h18V207.5z
		 M456.5,227.1h-18v16.3h18V227.1z M477.8,227.1h-18.3v16.3h18.3V227.1z M477.8,207.5h-18.3v16.5h18.3V207.5z M477.8,187.3h-18.3
		v17.3h18.3V187.3z M477.8,172.1h-18.3v12.1h18.3V172.1z M393.4,172.1h-19.2v12.1h19.2V172.1z M393.4,187.3h-19.2v17.3h19.2V187.3z
		 M393.4,207.5h-19.2v16.5h19.2V207.5z M393.4,227.1h-19.2v16.3h19.2V227.1z M414.4,172.1h-18v12.1h18V172.1z M414.4,187.3h-18v17.3
		h18V187.3z M414.4,207.5h-18v16.5h18V207.5z M414.4,227.1h-18v16.3h18V227.1z M435.4,172.1h-18v12.1h18V172.1z M435.4,187.3h-18
		v17.3h18V187.3z M435.4,207.5h-18v16.5h18V207.5z M435.4,227.1h-18v16.3h18V227.1z M761,0v250.9H0v-78.8V3.8V0H761z M753.5,172.1
		h-50.3v71.3h50.3V172.1z M753.5,7.5H7.5v157.1h746V7.5z M695.7,243.4v-31l-26.2,31H695.7z M695.7,200.8v-24.1l-56.2,66.7h20.2
		L695.7,200.8z M638.6,232.8l51.2-60.7h-20.2l-30.9,36.7V232.8z M638.6,197.2l21.1-25h-21.1V197.2z M631.1,243.4v-56.2
		c-2.5,6.8-6.2,14.7-12.1,22.6c-12.7,17.4-29.7,27.7-47.4,33.6H631.1z M612.9,205.4c9.8-13.4,13.3-26.8,14.5-33.3H527.4V243
		C566.5,242.3,595.3,229.6,612.9,205.4 M519.9,172.1h-34.6v71.3h34.6V172.1z M366.6,172.1H278v71.3h88.6V172.1z M270.5,172.1h-70.6
		v71.3h70.6V172.1z M192.3,172.1H7.5v71.3h184.8V172.1z"/>
	<rect x="278" y="172.1" class="st4" width="88.6" height="71.3"/>
	<rect x="199.8" y="172.1" class="st1" width="70.6" height="71.3"/>
	<path class="st5" d="M192.3,243.4H7.5v-71.3h184.8V243.4z M168.3,187.1h-7.5v42.1h7.5V187.1z M137.5,187.1H130v42.1h7.5V187.1z
		 M106.7,187.1h-7.5v42.1h7.5V187.1z M75.9,187.1h-7.5v42.1h7.5V187.1z M45.1,187.1h-7.5v42.1h7.5V187.1z"/>
	<rect x="160.8" y="187.1" class="st3" width="7.5" height="42.1"/>
	<rect x="130" y="187.1" class="st3" width="7.5" height="42.1"/>
	<rect x="99.2" y="187.1" class="st3" width="7.5" height="42.1"/>
	<rect x="68.4" y="187.1" class="st3" width="7.5" height="42.1"/>
	<rect x="37.6" y="187.1" class="st3" width="7.5" height="42.1"/>
	<path class="st3" d="M56,131.3c-3.3,0.4-7.5,0.4-11.3,0.4c-3.3,0-5.3-1.9-5.4-4.9V112c0-3,2.1-4.9,5.4-4.9c3.8,0,8,0,11.3,0.4
		l-0.2,4h-9.4c-1.2,0-1.7,0.5-1.7,1.8v3.7h9.7v3.9h-9.7v4.7c0,1.3,0.5,1.8,1.7,1.8h9.4L56,131.3z"/>
	<path class="st3" d="M87.1,107.2c1.3,0,2,0.7,2,2l1,22.4H85l-0.8-20.2h-0.6l-3.7,15.1c-0.2,1.2-1,1.7-2.2,1.7h-3.5
		c-1.2,0-1.9-0.6-2.2-1.7l-3.7-15.1h-0.6L67,131.6h-5.1l0.9-22.4c0.1-1.3,0.7-2,2-2H70c1.2,0,1.9,0.6,2.1,1.7l3,12.2
		c0.3,1.2,0.5,2.3,0.6,3.4h0.5c0.2-1.1,0.4-2.3,0.6-3.4l2.9-12.2c0.3-1.1,1-1.7,2.2-1.7H87.1z"/>
	<rect x="97" y="107.2" class="st3" width="5.4" height="24.4"/>
	<path class="st3" d="M123.3,131.6l-1.8-7.5c-0.5-1.6-1.2-2.1-2.6-2.1h-3.8v9.5h-5.3v-24.4c2.9-0.3,4.9-0.3,9.3-0.3
		c6.4,0,9,1.6,9,7.2c0,3.4-1.2,5.6-4.7,6v0.2c1.2,0.3,2.9,1.2,3.5,3.7l2.1,7.6H123.3z M118.9,117.9c2.8,0,3.7-0.8,3.7-3.5
		c0-2.7-0.8-3.4-3.7-3.4l-3.9,0v6.9H118.9z"/>
	<path class="st3" d="M139.8,125.2l-1.8,6.4h-5.5l7-23c0.2-0.9,1-1.4,1.9-1.4h5.1c0.9,0,1.7,0.5,1.9,1.4l7,23h-5.5l-1.8-6.4H139.8z
		 M144.9,113.5c-0.2-0.7-0.4-1.6-0.5-2.3h-1l-0.5,2.3l-2.1,7.5h6.1L144.9,113.5z"/>
	<polygon class="st3" points="169.1,111.6 169.1,131.6 163.7,131.6 163.7,111.6 156.4,111.6 156.4,107.2 176.4,107.2 176.4,111.6 	
		"/>
	<path class="st3" d="M198.4,131.3c-3.3,0.4-7.5,0.4-11.3,0.4c-3.3,0-5.3-1.9-5.4-4.9V112c0-3,2.1-4.9,5.4-4.9c3.8,0,8,0,11.3,0.4
		l-0.2,4h-9.4c-1.2,0-1.7,0.5-1.7,1.8v3.7h9.7v3.9h-9.7v4.7c0,1.3,0.5,1.8,1.7,1.8h9.4L198.4,131.3z"/>
	<path class="st3" d="M220.7,107.7l-0.4,3.7c-2.1-0.1-5.1-0.1-7.6-0.1c-2.6,0-3.5,0.1-3.5,2.2c0,1.7,0.7,2.2,2.5,2.8l4.6,1.6
		c3.9,1.4,5.2,3.6,5.2,7.2c0,5.6-2.4,7-9,7c-1.6,0-4.6-0.1-8.4-0.9l0.3-3.9c4.5,0.1,6.5,0.2,8.1,0.2c2.8,0,3.6-0.4,3.6-2.4
		c0-1.7-0.7-2.2-2.3-2.7l-4.9-1.7c-3.7-1.3-5.1-3.5-5.1-7.1c0-5.6,2.6-6.8,8.9-6.8C215.1,106.7,218,106.9,220.7,107.7"/>
	<path class="st3" d="M247.9,131.6h-5.4v-8.1l-8.1-16.3h5.6l4.1,8.9c0.4,1,0.7,2.1,0.9,3.1h0.4c0.2-1,0.5-2.1,0.9-3.1l4.1-8.9h5.6
		l-8,16.3V131.6z"/>
	<path class="st3" d="M280.2,119.4c0,9.8-2.8,12.7-10.5,12.7c-7.7,0-10.4-2.9-10.4-12.7c0-9.8,2.7-12.7,10.4-12.7
		C277.5,106.7,280.2,109.6,280.2,119.4 M265,119.4c0,6.5,1.1,8.3,4.8,8.3c3.7,0,4.8-1.8,4.8-8.3c0-6.5-1.1-8.3-4.8-8.3
		C266.1,111.1,265,112.9,265,119.4"/>
	<path class="st3" d="M306.1,121.8c0,7.5-2.5,10.2-9.5,10.2c-7.4,0-10-2.7-10-10.2v-14.7h5.4v14.7c0,4.5,1.1,5.8,4.4,5.8
		c3.3,0,4.3-1.3,4.3-5.8v-14.7h5.4V121.8z"/>
	<polygon class="st3" points="324.1,111.6 324.1,131.6 318.7,131.6 318.7,111.6 311.5,111.6 311.5,107.2 331.4,107.2 331.4,111.6 	
		"/>
	<polygon class="st3" points="356.4,131.6 351,131.6 351,120.7 342.4,120.7 342.4,131.6 337,131.6 337,107.2 342.4,107.2 
		342.4,116.5 351,116.5 351,107.2 356.4,107.2 	"/>
	<path class="st3" d="M400.8,130.1c-0.2,0.9-1,1.5-1.9,1.5h-5.2c-1,0-1.8-0.6-1.9-1.5l-2.7-15.9c-0.2-1-0.3-2.1-0.4-3.1H388
		c-0.1,1-0.2,2.1-0.4,3.1L385,130c-0.1,0.9-1,1.5-1.9,1.5h-5.2c-1,0-1.8-0.6-1.9-1.5l-3.9-22.9h5.5l2.4,16.9
		c0.1,1.1,0.2,2.2,0.3,3.5h0.7c0.1-1.2,0.4-2.4,0.5-3.5l2.6-15.3c0.1-1,0.9-1.7,1.9-1.7h4.7c1,0,1.7,0.7,1.9,1.7l2.6,15.3
		c0.2,1.1,0.4,2.4,0.5,3.5h0.7c0.1-1.1,0.2-2.4,0.3-3.5l2.4-17h5.5L400.8,130.1z"/>
	<path class="st3" d="M430.5,119.4c0,9.8-2.8,12.7-10.5,12.7s-10.4-2.9-10.4-12.7c0-9.8,2.7-12.7,10.4-12.7S430.5,109.6,430.5,119.4
		 M415.2,119.4c0,6.5,1.1,8.3,4.8,8.3c3.7,0,4.8-1.8,4.8-8.3c0-6.5-1.1-8.3-4.8-8.3C416.3,111.1,415.2,112.9,415.2,119.4"/>
	<path class="st3" d="M450.6,131.6l-1.8-7.5c-0.5-1.6-1.2-2.1-2.6-2.1h-3.8v9.5H437v-24.4c2.9-0.3,4.9-0.3,9.3-0.3
		c6.4,0,9,1.6,9,7.2c0,3.4-1.2,5.6-4.7,6v0.2c1.2,0.3,2.9,1.2,3.5,3.7l2.1,7.6H450.6z M446.2,117.9c2.8,0,3.7-0.8,3.7-3.5
		c0-2.7-0.8-3.4-3.7-3.4l-3.9,0v6.9H446.2z"/>
	<path class="st3" d="M467.3,120.8c0.1,0.8,0.2,1.6,0.2,2.3v8.4h-5.4v-24.4h5.4v6.9c0,1-0.1,1.9-0.2,2.9h2l6.2-9.8h5.8l-6.3,9.7
		c-0.5,0.9-1.1,1.4-1.8,1.9v0.1c0.7,0.5,1.6,1.3,2,2.2l6.4,10.4h-6l-6.4-10.7H467.3z"/>
	<path class="st3" d="M513.2,131.3c-3.3,0.4-7.5,0.4-11.3,0.4c-3.3,0-5.3-1.9-5.4-4.9V112c0-3,2.1-4.9,5.4-4.9c3.8,0,8,0,11.3,0.4
		l-0.2,4h-9.4c-1.2,0-1.7,0.5-1.7,1.8v3.7h9.7v3.9h-9.7v4.7c0,1.3,0.5,1.8,1.7,1.8h9.4L513.2,131.3z"/>
	<polygon class="st3" points="528.1,120.7 522.9,131.6 517.4,131.6 523.7,119.1 517.9,107.2 523.4,107.2 528.1,117.3 528.6,117.3 
		533.3,107.2 538.8,107.2 533,119.1 539.3,131.6 533.7,131.6 528.5,120.7 	"/>
	<path class="st3" d="M562.8,114.8c0,6.3-2.2,8-8.2,8c-1.6,0-3.2-0.1-4.6-0.3v9h-5.4v-24.4c2.9-0.3,4.9-0.3,9.3-0.3
		C560.6,106.9,562.8,108.6,562.8,114.8 M553.7,118.7c2.8,0,3.6-0.8,3.6-3.9c0-3-0.8-3.8-3.6-3.8H550v7.7H553.7z"/>
	<path class="st3" d="M585.2,131.3c-3.3,0.4-7.5,0.4-11.3,0.4c-3.3,0-5.3-1.9-5.4-4.9V112c0-3,2.1-4.9,5.4-4.9c3.8,0,8,0,11.3,0.4
		l-0.2,4h-9.4c-1.2,0-1.7,0.5-1.7,1.8v3.7h9.7v3.9h-9.7v4.7c0,1.3,0.5,1.8,1.7,1.8h9.4L585.2,131.3z"/>
	<path class="st3" d="M605.1,131.6l-1.8-7.5c-0.5-1.6-1.2-2.1-2.6-2.1h-3.8v9.5h-5.3v-24.4c2.9-0.3,4.9-0.3,9.3-0.3
		c6.4,0,9,1.6,9,7.2c0,3.4-1.2,5.6-4.7,6v0.2c1.2,0.3,2.9,1.2,3.5,3.7l2.1,7.6H605.1z M600.7,117.9c2.8,0,3.7-0.8,3.7-3.5
		c0-2.7-0.8-3.4-3.7-3.4l-3.9,0v6.9H600.7z"/>
	<rect x="616.7" y="107.2" class="st3" width="5.4" height="24.4"/>
	<path class="st3" d="M645.9,131.3c-3.3,0.4-7.5,0.4-11.3,0.4c-3.3,0-5.3-1.9-5.4-4.9V112c0-3,2.1-4.9,5.4-4.9c3.8,0,8,0,11.3,0.4
		l-0.2,4h-9.4c-1.2,0-1.7,0.5-1.7,1.8v3.7h9.7v3.9h-9.7v4.7c0,1.3,0.5,1.8,1.7,1.8h9.4L645.9,131.3z"/>
	<path class="st3" d="M672.8,129.6c0,1.3-0.6,1.9-1.9,1.9h-3.4c-1.1,0-1.6-0.5-2.2-1.6l-6.4-13c-0.5-1.1-1.2-2.6-1.5-3.8h-0.4
		c0.2,1.3,0.2,2.6,0.2,3.9v14.5h-5.1v-22.4c0-1.3,0.7-1.9,1.9-1.9h3.3c1.1,0,1.6,0.5,2.2,1.6l6.2,12.6c0.5,1.1,1.2,2.5,1.8,3.9h0.4
		c-0.1-1.4-0.2-2.7-0.2-4.1v-14h5.1V129.6z"/>
	<path class="st3" d="M697,107.6l-0.5,4c-2.3-0.1-3.8-0.2-6.9-0.2c-3.5,0-4.6,1.8-4.6,8c0,6.2,1.1,8,4.6,8c3.3,0,5.2,0,7.4-0.3
		l0.5,4c-2.3,0.7-4.3,1-7.8,1c-7.5,0-10.3-3.3-10.3-12.6c0-9.3,2.7-12.6,10.3-12.6C693.1,106.8,694.8,107,697,107.6"/>
	<path class="st3" d="M719.9,131.3c-3.3,0.4-7.5,0.4-11.3,0.4c-3.3,0-5.3-1.9-5.4-4.9V112c0-3,2.1-4.9,5.4-4.9c3.8,0,8,0,11.3,0.4
		l-0.2,4h-9.4c-1.2,0-1.7,0.5-1.7,1.8v3.7h9.7v3.9h-9.7v4.7c0,1.3,0.5,1.8,1.7,1.8h9.4L719.9,131.3z"/>
	<path class="st3" d="M42.4,74.2c-1.3-1.7-1.9-4.5-1.9-8.4c0-3.5,0.5-6.7,1.5-9.7l5.8,1c-0.9,2.6-1.3,5-1.3,7.1
		c0,2.4,0.3,4.3,0.8,5.8l25.8,0l0-17.2l6.1,0l0,24.1l-30.7,0C45.8,76.7,43.7,75.9,42.4,74.2 M54.7,51.2c-0.6-0.4-1.1-0.9-1.5-1.5
		c-0.4-0.6-0.6-1.1-0.6-1.5c0-0.7,0.4-1.4,1.3-2.3c0.9-0.8,1.6-1.3,2.3-1.3c0.7,0,1.4,0.5,2.3,1.3c0.8,0.8,1.3,1.6,1.3,2.3
		c0,0.4-0.2,0.9-0.6,1.5c-0.4,0.6-0.9,1.1-1.5,1.5c-0.6,0.4-1.1,0.6-1.5,0.6C55.7,51.8,55.2,51.6,54.7,51.2 M63.2,51.2
		c-0.6-0.4-1.1-0.9-1.5-1.5c-0.4-0.6-0.6-1.1-0.6-1.5c0-0.7,0.4-1.4,1.3-2.3c0.9-0.8,1.6-1.3,2.3-1.3c0.7,0,1.4,0.5,2.3,1.3
		s1.3,1.6,1.3,2.3c0,0.4-0.2,0.9-0.6,1.5c-0.4,0.6-0.9,1.1-1.5,1.5c-0.6,0.4-1,0.6-1.5,0.6C64.3,51.8,63.8,51.6,63.2,51.2"/>
	<rect x="88.1" y="44.5" class="st3" width="6.1" height="32.2"/>
	<path class="st3" d="M99.7,85.2c1.4-0.6,2.4-1.3,3.1-2c0.7-0.7,1.2-1.6,1.5-2.7c0.3-1.1,0.4-2.6,0.4-4.4l0-23.3l6.1,0l0,23.3
		c0,3.9-0.7,6.9-2,9.2c-1.3,2.3-3.6,4.1-6.8,5.5L99.7,85.2z"/>
	<polygon class="st3" points="119.6,44.5 125.7,44.5 125.7,69.8 131.1,69.8 131.1,76.7 119.6,76.7 	"/>
	<path class="st3" d="M158,53.8c1.6,1.2,2.3,3.2,2.3,6l0,16.9l-31.3,0l0-6.9l7.1,0c-0.3-1.5-0.4-3.3-0.4-5.4c0-1.7,0.2-3.4,0.5-5
		c0.3-1.6,0.8-3.3,1.4-5.1l-0.1-0.1c1.8-0.7,3.8-1.3,6-1.6c2.2-0.4,4.5-0.6,6.7-0.6C153.9,52,156.5,52.6,158,53.8 M154.2,59.2
		c-1.2-0.2-2.7-0.4-4.7-0.4c-2.5,0-4.8,0.2-7.1,0.7c-0.5,1.7-0.7,3.3-0.7,4.8c0,2.2,0.2,4,0.5,5.4l11.9,0L154.2,59.2z"/>
	<path class="st3" d="M177.7,88.5l0,3l-11.9,3.2l0-3l2-0.6c-0.3-0.8-0.5-1.9-0.5-3.2c0-2.6,0.8-4.4,2.3-5.5c1.5-1.1,3.7-1.7,6.6-1.8
		l0,3.5c-1.7,0.1-3.4,0.5-4.9,1.1l0,3.4c0,0.4,0.1,0.7,0.2,0.9c0.1,0.2,0.4,0.3,0.7,0.3c0.1,0,0.5-0.1,1.1-0.2L177.7,88.5z
		 M193.3,64.2c0.5,1.2,0.8,2.6,0.8,4.2c0,3.2-1.1,5.5-3.2,6.9c-2.1,1.4-5.6,2.1-10.3,2.1c-3.3,0-5.8-0.3-7.7-0.9
		c-1.8-0.6-3.1-1.5-3.9-2.7c-0.8-1.2-1.2-3-1.2-5.1c0-1.8,0.2-3.3,0.6-4.4c0.4-1.2,1.1-2.2,2.1-3c1-0.9,2.5-1.6,4.4-2.3l2.3-0.8
		l-8.4-6.9l4.2-5.1l11.6,9.4l2.5-0.9l0-10.2l6.1,0l0,9.3c0,2.2-0.2,3.7-0.5,4.5c-0.3,0.9-1,1.5-2,1.8v0.4
		C191.9,61.7,192.8,63,193.3,64.2 M186.7,69.9c0.6-0.5,0.9-1.1,0.9-1.8c0-0.5-0.2-1-0.5-1.5c-0.3-0.5-0.8-1-1.3-1.4l-2.7-2.2
		l-8.8,3.1l0,4.6l9.4,0C185.1,70.6,186.1,70.3,186.7,69.9"/>
	<rect x="202.4" y="44.4" class="st3" width="6.1" height="32.2"/>
	<path class="st3" d="M229.4,74.1c-1.3-1.7-1.9-4.5-1.9-8.4c0-3.5,0.5-6.7,1.5-9.7l5.8,1c-0.9,2.6-1.3,5-1.3,7.1
		c0,2.4,0.3,4.4,0.8,5.8l25.8,0l0-17.2l6.1,0l0,24.1l-30.7,0C232.7,76.7,230.7,75.8,229.4,74.1 M245.9,87.6
		c-0.6-0.4-1.1-0.9-1.5-1.5c-0.4-0.6-0.6-1.1-0.6-1.5c0-0.7,0.4-1.4,1.3-2.3c0.9-0.8,1.6-1.3,2.3-1.3c0.7,0,1.4,0.5,2.3,1.3
		c0.8,0.8,1.3,1.6,1.3,2.3c0,0.4-0.2,0.9-0.6,1.5c-0.4,0.6-0.9,1.1-1.5,1.5c-0.6,0.4-1.1,0.6-1.5,0.6C247,88.2,246.5,88,245.9,87.6"
		/>
	<polygon class="st3" points="275,44.4 281.1,44.4 281.1,69.8 286.6,69.8 286.6,76.6 275.1,76.6 	"/>
	<path class="st3" d="M304,69.8l0,6.9l-19.5,0l0-6.9l7.9,0l0-17.2l6.1,0l0,17.2L304,69.8z M294,87.3c-0.6-0.4-1.1-0.9-1.5-1.5
		c-0.4-0.6-0.6-1.1-0.6-1.5c0-0.7,0.4-1.4,1.3-2.3c0.9-0.8,1.6-1.3,2.3-1.3c0.7,0,1.4,0.5,2.3,1.3c0.8,0.8,1.3,1.6,1.3,2.3
		c0,0.4-0.2,0.9-0.6,1.5c-0.4,0.6-0.9,1.1-1.5,1.5c-0.6,0.4-1.1,0.6-1.5,0.6C295.1,87.9,294.6,87.7,294,87.3"/>
	<path class="st3" d="M354.9,69.7l0,6.9l-17,0c-2,0-3.7-0.1-5.1-0.4c-1.3-0.2-2.4-0.6-3.2-1.2c-0.9,0.6-2.1,1-3.5,1.2
		c-1.5,0.2-3.3,0.4-5.6,0.4l-18.5,0l0-6.9l7.9,0l0-12.6l6.1,0l0,12.6l6.8,0c1.4,0,2.4-0.2,3-0.6c0.6-0.4,0.9-1.1,0.9-2.1l0-9.9
		l6.1,0l0,9.9c0,1.1,0.3,1.8,0.9,2.1c0.6,0.4,1.6,0.6,3,0.6l6.2,0c0.4-1.6,0.6-3.7,0.6-6.3c0-2.7-0.5-6-1.4-9.9l6-0.9
		c0.4,1.4,0.8,3.1,1.1,5c0.3,1.9,0.4,3.8,0.4,5.5c0,2.7-0.2,4.9-0.7,6.6L354.9,69.7z M324.2,46c-0.6-0.4-1-0.9-1.5-1.5
		c-0.4-0.6-0.6-1.1-0.6-1.5c0-0.7,0.4-1.4,1.3-2.3c0.9-0.8,1.6-1.3,2.3-1.3c0.7,0,1.4,0.5,2.3,1.3c0.8,0.8,1.3,1.6,1.3,2.3
		c0,0.4-0.2,0.9-0.6,1.5c-0.4,0.6-0.9,1.1-1.5,1.5c-0.6,0.4-1,0.6-1.5,0.6C325.3,46.6,324.8,46.4,324.2,46 M328.4,36.9
		c-0.6-0.4-1-0.9-1.5-1.5c-0.4-0.6-0.6-1.1-0.6-1.5c0-0.7,0.4-1.4,1.3-2.3c0.9-0.8,1.6-1.3,2.3-1.3c0.7,0,1.4,0.5,2.3,1.3
		c0.8,0.8,1.3,1.6,1.3,2.3c0,0.4-0.2,0.9-0.6,1.5c-0.4,0.6-0.9,1.1-1.5,1.5c-0.6,0.4-1,0.6-1.5,0.6C329.5,37.5,329,37.3,328.4,36.9
		 M332.8,45.9c-0.6-0.4-1.1-0.9-1.5-1.5c-0.4-0.6-0.6-1.1-0.6-1.5c0-0.7,0.4-1.4,1.3-2.3c0.9-0.8,1.6-1.3,2.3-1.3
		c0.7,0,1.4,0.5,2.3,1.3c0.8,0.8,1.3,1.6,1.3,2.3c0,0.4-0.2,0.9-0.6,1.5c-0.4,0.6-0.9,1.1-1.5,1.5c-0.6,0.4-1,0.6-1.5,0.6
		C333.8,46.6,333.3,46.4,332.8,45.9"/>
	<polygon class="st3" points="352.9,76.6 352.9,69.7 360.8,69.7 360.8,44.4 366.9,44.3 366.9,76.6 	"/>
	<path class="st3" d="M416.3,69.7l0,6.9l-18.2,0c-3.2,0-5.7-0.3-7.2-0.9c-1.6-0.6-2.7-1.8-3.3-3.4c-0.6-1.7-0.9-4.2-0.9-7.7
		c0-3.4,0.3-6,0.9-7.6c0.6-1.7,1.7-2.8,3.3-3.5c1.6-0.6,4-0.9,7.2-1l13.1,0l0,17.2L416.3,69.7z M393.8,45.9c-0.6-0.4-1-0.9-1.5-1.5
		c-0.4-0.6-0.6-1.1-0.6-1.5c0-0.7,0.4-1.4,1.3-2.3c0.9-0.8,1.6-1.3,2.3-1.3c0.7,0,1.4,0.5,2.3,1.3c0.8,0.8,1.3,1.6,1.3,2.3
		c0,0.4-0.2,0.9-0.6,1.5c-0.4,0.6-0.9,1.1-1.5,1.5c-0.6,0.4-1,0.6-1.5,0.6C394.9,46.5,394.4,46.3,393.8,45.9 M405,59.4l-9.3,0
		c-0.9,0-1.6,0.2-2,0.5c-0.4,0.4-0.6,0.9-0.6,1.7l0,5.8c0,0.8,0.2,1.4,0.6,1.7c0.4,0.4,1.1,0.5,2,0.5l9.3,0L405,59.4z M402.4,45.9
		c-0.6-0.4-1-0.9-1.5-1.5c-0.4-0.6-0.6-1.1-0.6-1.5c0-0.7,0.4-1.4,1.3-2.3c0.9-0.8,1.6-1.3,2.3-1.3c0.7,0,1.4,0.5,2.3,1.3
		c0.8,0.8,1.3,1.6,1.3,2.3c0,0.4-0.2,0.9-0.6,1.5c-0.4,0.6-0.9,1.1-1.5,1.5c-0.6,0.4-1,0.6-1.5,0.6
		C403.4,46.5,402.9,46.3,402.4,45.9"/>
	<path class="st3" d="M433.7,69.7l0,6.9l-19.5,0l0-6.9l7.9,0l0-17.2l6.1,0l0,17.2L433.7,69.7z M419.4,87.2c-0.6-0.4-1-0.9-1.5-1.5
		c-0.4-0.6-0.6-1.1-0.6-1.5c0-0.7,0.4-1.4,1.3-2.3c0.9-0.8,1.6-1.3,2.3-1.3c0.7,0,1.4,0.5,2.3,1.3c0.8,0.8,1.3,1.6,1.3,2.3
		c0,0.4-0.2,0.9-0.6,1.5c-0.4,0.6-0.9,1.1-1.5,1.5c-0.6,0.4-1,0.6-1.5,0.6C420.4,87.8,419.9,87.6,419.4,87.2 M427.9,87.2
		c-0.6-0.4-1.1-0.9-1.5-1.5c-0.4-0.6-0.6-1.1-0.6-1.5c0-0.7,0.4-1.4,1.3-2.3c0.9-0.8,1.6-1.3,2.3-1.3c0.7,0,1.4,0.5,2.3,1.3
		c0.8,0.8,1.3,1.6,1.3,2.3c0,0.4-0.2,0.9-0.6,1.5c-0.4,0.6-0.9,1.1-1.5,1.5c-0.6,0.4-1,0.6-1.5,0.6C429,87.8,428.5,87.6,427.9,87.2"
		/>
	<polygon class="st3" points="451.1,69.7 451.1,76.6 431.6,76.6 431.6,69.7 439.6,69.7 439.5,44.3 445.6,44.3 445.7,69.7 	"/>
	<path class="st3" d="M485.7,69.7l0,6.9l-36.6,0l0-6.9l7.1,0c-0.3-1.5-0.4-3.3-0.4-5.4c0-1.7,0.2-3.4,0.5-5c0.3-1.6,0.8-3.3,1.4-5.1
		l-0.1-0.1c1.8-0.7,3.8-1.3,6-1.6c2.2-0.4,4.5-0.6,6.7-0.6c3.6,0,6.1,0.6,7.7,1.8c1.6,1.2,2.3,3.2,2.3,6l0,10L485.7,69.7z
		 M474.2,59.1c-1.2-0.2-2.7-0.4-4.7-0.4c-2.5,0-4.8,0.2-7.1,0.7c-0.5,1.7-0.7,3.3-0.7,4.8c0,2.2,0.2,4,0.5,5.4l11.9,0L474.2,59.1z"
		/>
	<path class="st3" d="M520.3,69.7l0,6.9l-8.4,0c-3.4,0-6.7-0.6-9.8-1.7c-3.1,1.1-6.4,1.7-9.9,1.7l-8.4,0l0-6.9l8.4,0l1.5,0
		c-1.7-1.7-3.1-3.6-4-5.7c-0.9-2.1-1.4-4.3-1.4-6.6c0-1.4,0.5-2.5,1.4-3.3c0.9-0.8,2.4-1.4,4.4-1.8c2-0.4,4.7-0.5,8.1-0.5
		c3.4,0,6.2,0.2,8.1,0.5c2,0.4,3.4,0.9,4.3,1.7c0.9,0.8,1.3,1.9,1.3,3.3c0,2.3-0.5,4.5-1.4,6.6c-0.9,2.1-2.2,4-3.9,5.7h1.4
		L520.3,69.7z M496.2,64.8c1.3,1.6,3.2,2.8,5.8,3.7c2.6-0.8,4.5-2,5.8-3.7c1.3-1.6,1.9-3.7,1.9-6.1l-15.4,0
		C494.3,61.2,494.9,63.2,496.2,64.8"/>
	<polygon class="st3" points="518.2,76.5 518.2,69.7 526.2,69.7 526.2,44.3 532.2,44.3 532.3,76.5 	"/>
	<rect x="541" y="44.3" class="st3" width="6.1" height="32.2"/>
	<path class="st3" d="M568,73.9c-1.3-1.7-1.9-4.5-1.9-8.4c0-3.5,0.5-6.7,1.5-9.7l5.8,1c-0.9,2.6-1.3,5-1.3,7.1
		c0,2.4,0.3,4.4,0.8,5.8l25.8,0l0-17.2l6.1,0l0,24.1l-30.7,0C571.4,76.5,569.3,75.7,568,73.9 M584.5,87.4c-0.6-0.4-1-0.9-1.5-1.5
		c-0.4-0.6-0.6-1.1-0.6-1.5c0-0.7,0.4-1.4,1.3-2.3c0.9-0.8,1.6-1.3,2.3-1.3c0.7,0,1.4,0.5,2.3,1.3c0.8,0.8,1.3,1.6,1.3,2.3
		c0,0.4-0.2,0.9-0.6,1.5c-0.4,0.6-0.9,1.1-1.5,1.5c-0.6,0.4-1,0.6-1.5,0.6C585.6,88,585.1,87.8,584.5,87.4"/>
	<path class="st3" d="M610.5,84.9c1.4-0.6,2.4-1.3,3.1-2c0.7-0.7,1.2-1.6,1.5-2.7c0.3-1.1,0.4-2.6,0.4-4.4l0-23.3l6.1,0l0,23.3
		c0,3.9-0.7,6.9-2,9.2c-1.3,2.3-3.6,4.1-6.8,5.5L610.5,84.9z"/>
	<polygon class="st3" points="630.4,44.2 636.5,44.2 636.5,69.6 641.9,69.6 641.9,76.5 630.4,76.5 	"/>
	<path class="st3" d="M672.5,69.6l0,6.9l-4.5,0c-1.1,0-1.9-0.2-2.6-0.7c-0.6-0.5-1.2-1.2-1.5-2.2l-1.3-3.4c-1.5,2.1-3.4,3.7-5.7,4.7
		c-2.2,1-4.7,1.6-7.5,1.6l-9.6,0l0-6.9l10.7,0c4.2,0,7.2-2.2,9-6.7c-0.9-1.5-2.1-2.6-3.6-3.3c-1.5-0.7-3.5-1-6-1
		c-2,0-3.8,0.1-5.5,0.3l-0.9-6.8c2.6-0.3,4.7-0.4,6.6-0.4c4.4,0,7.8,0.8,10.2,2.5c2.4,1.7,4.4,4.5,5.8,8.3l2.6,7L672.5,69.6z
		 M654.3,87.1c-0.6-0.4-1.1-0.9-1.5-1.5c-0.4-0.6-0.6-1.1-0.6-1.5c0-0.7,0.4-1.4,1.3-2.3c0.9-0.8,1.6-1.3,2.3-1.3
		c0.7,0,1.4,0.5,2.3,1.3c0.8,0.8,1.3,1.6,1.3,2.3c0,0.4-0.2,0.9-0.6,1.5c-0.4,0.6-0.9,1.1-1.5,1.5c-0.6,0.4-1,0.6-1.5,0.6
		C655.3,87.7,654.8,87.5,654.3,87.1"/>
	<path class="st3" d="M689.8,69.6l0,6.9l-19.5,0l0-6.9l7.9,0l0-17.2l6.1,0l0,17.2L689.8,69.6z M675.6,45.8c-0.6-0.4-1-0.9-1.5-1.5
		c-0.4-0.6-0.6-1.1-0.6-1.5c0-0.7,0.4-1.4,1.3-2.3c0.9-0.8,1.6-1.3,2.3-1.3c0.7,0,1.4,0.5,2.3,1.3c0.8,0.8,1.3,1.6,1.3,2.3
		c0,0.4-0.2,0.9-0.6,1.5c-0.4,0.6-0.9,1.1-1.5,1.5c-0.6,0.4-1,0.6-1.5,0.6C676.7,46.4,676.2,46.2,675.6,45.8 M684.1,45.8
		c-0.6-0.4-1.1-0.9-1.5-1.5c-0.4-0.6-0.6-1.1-0.6-1.5c0-0.7,0.4-1.4,1.3-2.3c0.9-0.8,1.6-1.3,2.3-1.3c0.7,0,1.4,0.5,2.3,1.3
		c0.8,0.8,1.3,1.6,1.3,2.3c0,0.4-0.2,0.9-0.6,1.5c-0.4,0.6-0.9,1.1-1.5,1.5c-0.6,0.4-1,0.6-1.5,0.6
		C685.2,46.4,684.7,46.2,684.1,45.8"/>
	<polygon class="st3" points="687.8,76.5 687.8,69.6 695.7,69.6 695.7,44.2 701.8,44.2 701.8,76.5 	"/>
	<rect x="710.5" y="44.2" class="st3" width="6.1" height="32.2"/>
</g>
</svg>
