
<svg id="Layer_2" data-name="Layer 2" xmlns="http://www.w3.org/2000/svg" viewBox="0 0 1196.65 222.42">
  <defs>
    <style>
      .cls-1 {
        fill: #75b9be;
      }

      .cls-1, .cls-2, .cls-3, .cls-4, .cls-5 {
        stroke-width: 0px;
      }

      .cls-2 {
        fill: #268b65;
      }

      .cls-3 {
        fill: #36c670;
      }

      .cls-4 {
        fill: #444;
      }

      .cls-5 {
        fill: #90baad;
      }
    </style>
  </defs>
  <g id="Layer_1-2" data-name="Layer 1">
    <g>
      <g>
        <path class="cls-3" d="m368.7,113c-1.44-4.38-4.05-8.36-8.22-12.52-13.08-13.02-26.34-26.3-39.16-39.15-7.6-7.62-15.21-15.23-22.82-22.84-1.94-1.94-3.63-3.41-5.32-4.63-8.26-5.97-20.62-4.23-26.98,3.79-6.94,8.75-6.24,19.62,1.77,27.7,11.74,11.83,23.71,23.82,35.29,35.42,4.93,4.93,9.85,9.87,14.78,14.8.75.75,1.52,1.52,1.82,1.94-.3.41-1.06,1.17-1.79,1.91-5.07,5.07-10.14,10.14-15.21,15.22-11.62,11.62-23.63,23.63-35.39,35.5-4.46,4.5-6.6,10.62-5.88,16.8.71,6.13,4.14,11.53,9.41,14.83,3.4,2.13,7.05,3.18,10.68,3.18,5.42,0,10.81-2.33,15.35-6.87,7.75-7.75,15.49-15.51,23.23-23.27,13.01-13.04,26.46-26.53,39.73-39.75,3.34-3.33,6.99-7.48,8.72-13.05l.09-.28v-8.45s-.09-.29-.09-.29Z"/>
        <path class="cls-3" d="m100.36,162.64c-11.08-11.15-22.38-22.46-33.31-33.39-5.27-5.27-10.54-10.55-15.81-15.83-.73-.73-1.54-1.54-1.84-1.96.29-.42,1.1-1.24,1.89-2.04,4.76-4.81,9.51-9.62,14.26-14.43,11.67-11.81,23.73-24.02,35.62-36,4.27-4.3,6.19-9.2,6.24-15.91v-.06c-.2-7.52-4.61-13.75-12.09-17.08-8-3.57-15.77-2.2-21.88,3.87C52.44,50.67,30.27,72.87,5.67,97.67c-7.54,7.6-7.56,19.95-.04,27.54,26.67,26.91,48.28,48.57,68.01,68.15,3.6,3.58,8.39,5.51,13.46,5.51,1,0,2-.07,3.01-.23,6.31-.94,11.85-4.82,14.83-10.37,4.66-8.68,2.99-18.02-4.58-25.63Z"/>
        <rect class="cls-2" x="163.98" y="-7.79" width="41" height="238" rx="20.5" ry="20.5" transform="translate(57.96 -63.13) rotate(22.95)"/>
      </g>
      <g>
        <path class="cls-1" d="m1087.7,48.35c11.13-6.49,23.26-9.74,36.38-9.74s25.25,3.25,36.38,9.74c11.13,6.5,19.95,15.34,26.44,26.54,6.49,11.2,9.74,23.39,9.74,36.58s-3.25,25.38-9.74,36.58c-6.5,11.2-15.31,20.05-26.44,26.54-11.13,6.49-23.26,9.74-36.38,9.74-9.81,0-19.22-1.92-28.23-5.77-9.01-3.84-16.73-9.01-23.16-15.51-6.43-6.49-11.56-14.25-15.41-23.26-3.85-9.01-5.77-18.49-5.77-28.43,0-13.12,3.25-25.28,9.74-36.48,6.49-11.2,15.31-20.04,26.44-26.54Zm2.19,97.51c9.41,9.48,20.77,14.21,34.1,14.21s24.72-4.74,34.19-14.21c9.47-9.47,14.21-20.97,14.21-34.49,0-8.75-2.16-16.86-6.46-24.35-4.31-7.49-10.17-13.39-17.59-17.69-7.42-4.31-15.51-6.46-24.25-6.46-13.39,0-24.78,4.74-34.19,14.21-9.41,9.48-14.11,20.94-14.11,34.39s4.7,24.92,14.11,34.39Z"/>
        <g>
          <path class="cls-3" d="m946.28,76.38c2.87-2.87,6.34-4.31,10.41-4.31s7.5,1.44,10.29,4.31c2.79,2.87,4.19,6.3,4.19,10.29v88.97c0,3.99-1.4,7.42-4.19,10.29-2.79,2.87-6.22,4.31-10.29,4.31s-7.54-1.44-10.41-4.31c-2.87-2.87-4.31-6.3-4.31-10.29v-88.97c0-3.99,1.44-7.42,4.31-10.29Z"/>
          <circle class="cls-2" cx="957.3" cy="47.5" r="14.79"/>
        </g>
        <path class="cls-5" d="m993.8,205.92h0c-2.95-.65-4.96-2.95-4.48-5.13l54.57-181.02c.48-2.18,3.27-3.41,6.22-2.76h0c2.95.65,4.96,2.95,4.48,5.13l-54.57,181.02c-.48,2.18-3.27,3.41-6.22,2.76Z"/>
      </g>
      <g>
        <path class="cls-4" d="m565.62,108.84c-4.1,7.39-10.39,13.35-18.86,17.88-8.48,4.53-19.01,6.8-31.59,6.8h-23.25v55.28h-37.51V34.8h60.76c12.28,0,22.67,2.12,31.15,6.36,8.48,4.24,14.84,10.09,19.08,17.55,4.24,7.46,6.36,16.01,6.36,25.66,0,8.92-2.05,17.08-6.14,24.46Zm-37.29-10.2c3.51-3.36,5.26-8.12,5.26-14.26s-1.75-10.89-5.26-14.26c-3.51-3.36-8.85-5.05-16.01-5.05h-20.4v38.61h20.4c7.16,0,12.5-1.68,16.01-5.05Z"/>
        <path class="cls-4" d="m693.5,83.5c-2.78-5.12-6.77-9.03-11.96-11.74-5.19-2.7-11.3-4.06-18.32-4.06-12.14,0-21.86,3.99-29.17,11.95-7.31,7.97-10.97,18.61-10.97,31.92,0,14.19,3.84,25.26,11.52,33.23,7.68,7.97,18.24,11.96,31.7,11.96,9.21,0,17-2.34,23.36-7.02,6.36-4.68,11-11.41,13.93-20.18h-47.6v-27.64h81.6v34.88c-2.78,9.36-7.5,18.06-14.15,26.1-6.66,8.04-15.1,14.55-25.34,19.52-10.24,4.97-21.79,7.46-34.66,7.46-15.21,0-28.77-3.32-40.69-9.98-11.92-6.65-21.21-15.9-27.86-27.75-6.66-11.85-9.98-25.37-9.98-40.58s3.32-28.77,9.98-40.69c6.65-11.92,15.9-21.2,27.75-27.86,11.85-6.65,25.37-9.98,40.58-9.98,18.43,0,33.96,4.46,46.61,13.38,12.65,8.92,21.02,21.28,25.12,37.07h-41.46Z"/>
        <path class="cls-4" d="m783.88,184.84c-8.92-3.65-16.05-9.07-21.39-16.23-5.34-7.16-8.15-15.79-8.45-25.88h39.92c.58,5.7,2.56,10.06,5.92,13.05,3.36,3,7.75,4.5,13.16,4.5s9.94-1.28,13.16-3.84c3.22-2.56,4.83-6.1,4.83-10.64,0-3.8-1.28-6.94-3.84-9.43-2.56-2.48-5.7-4.53-9.43-6.14-3.73-1.61-9.03-3.43-15.9-5.48-9.95-3.07-18.06-6.14-24.35-9.21-6.29-3.07-11.7-7.6-16.23-13.6-4.53-5.99-6.8-13.82-6.8-23.47,0-14.33,5.19-25.55,15.57-33.67,10.38-8.12,23.91-12.17,40.58-12.17s30.63,4.06,41.02,12.17c10.38,8.12,15.94,19.41,16.67,33.89h-40.58c-.29-4.97-2.12-8.88-5.48-11.74-3.37-2.85-7.68-4.28-12.94-4.28-4.53,0-8.19,1.21-10.97,3.62-2.78,2.41-4.17,5.89-4.17,10.42,0,4.97,2.34,8.85,7.02,11.63,4.68,2.78,11.99,5.78,21.94,8.99,9.94,3.37,18.02,6.58,24.24,9.65,6.21,3.07,11.59,7.53,16.12,13.38,4.53,5.85,6.8,13.38,6.8,22.59s-2.23,16.75-6.69,23.91c-4.46,7.17-10.93,12.87-19.41,17.11-8.48,4.24-18.5,6.36-30.05,6.36s-21.35-1.83-30.27-5.48Z"/>
      </g>
    </g>
  </g>
</svg>

