<?xml version="1.0" encoding="utf-8"?>
<!-- Generator: Adobe Illustrator 25.0.1, SVG Export Plug-In . SVG Version: 6.00 Build 0)  -->
<svg version="1.1" id="Layer_1" xmlns="http://www.w3.org/2000/svg" xmlns:xlink="http://www.w3.org/1999/xlink" x="0px" y="0px"
	 viewBox="0 0 249.5 44.3" enable-background="new 0 0 249.5 44.3" xml:space="preserve">
<g>
	<g>
		<path fill="#FFFFFF" d="M107,21.6c-0.9,1.6-2.3,2.9-4.1,3.9c-1.9,1-4.2,1.5-6.9,1.5h-5.1v12.1h-8.2V5.4h13.3c2.7,0,5,0.5,6.8,1.4
			c1.9,0.9,3.2,2.2,4.2,3.8c0.9,1.6,1.4,3.5,1.4,5.6C108.3,18.2,107.9,19.9,107,21.6z M98.8,19.3c0.8-0.7,1.2-1.8,1.2-3.1
			c0-1.3-0.4-2.4-1.2-3.1C98,12.4,96.9,12,95.3,12h-4.5v8.4h4.5C96.9,20.4,98,20.1,98.8,19.3z"/>
		<path fill="#FFFFFF" d="M134.9,16c-0.6-1.1-1.5-2-2.6-2.6c-1.1-0.6-2.5-0.9-4-0.9c-2.7,0-4.8,0.9-6.4,2.6c-1.6,1.7-2.4,4.1-2.4,7
			c0,3.1,0.8,5.5,2.5,7.3c1.7,1.7,4,2.6,6.9,2.6c2,0,3.7-0.5,5.1-1.5c1.4-1,2.4-2.5,3-4.4h-10.4v-6h17.9v7.6c-0.6,2-1.6,4-3.1,5.7
			c-1.5,1.8-3.3,3.2-5.5,4.3c-2.2,1.1-4.8,1.6-7.6,1.6c-3.3,0-6.3-0.7-8.9-2.2c-2.6-1.5-4.6-3.5-6.1-6.1c-1.5-2.6-2.2-5.6-2.2-8.9
			c0-3.3,0.7-6.3,2.2-8.9c1.5-2.6,3.5-4.6,6.1-6.1C122,5.7,125,5,128.3,5c4,0,7.4,1,10.2,2.9c2.8,2,4.6,4.7,5.5,8.1H134.9z"/>
		<path fill="#FFFFFF" d="M154.7,38.2c-2-0.8-3.5-2-4.7-3.6c-1.2-1.6-1.8-3.5-1.8-5.7h8.7c0.1,1.2,0.6,2.2,1.3,2.9
			c0.7,0.7,1.7,1,2.9,1c1.2,0,2.2-0.3,2.9-0.8c0.7-0.6,1.1-1.3,1.1-2.3c0-0.8-0.3-1.5-0.8-2.1c-0.6-0.5-1.2-1-2.1-1.3
			c-0.8-0.4-2-0.8-3.5-1.2c-2.2-0.7-4-1.3-5.3-2c-1.4-0.7-2.6-1.7-3.6-3c-1-1.3-1.5-3-1.5-5.1c0-3.1,1.1-5.6,3.4-7.4
			c2.3-1.8,5.2-2.7,8.9-2.7c3.7,0,6.7,0.9,9,2.7c2.3,1.8,3.5,4.2,3.6,7.4h-8.9c-0.1-1.1-0.5-1.9-1.2-2.6c-0.7-0.6-1.7-0.9-2.8-0.9
			c-1,0-1.8,0.3-2.4,0.8c-0.6,0.5-0.9,1.3-0.9,2.3c0,1.1,0.5,1.9,1.5,2.5c1,0.6,2.6,1.3,4.8,2c2.2,0.7,3.9,1.4,5.3,2.1
			c1.4,0.7,2.5,1.6,3.5,2.9c1,1.3,1.5,2.9,1.5,4.9c0,1.9-0.5,3.7-1.5,5.2c-1,1.6-2.4,2.8-4.2,3.7c-1.9,0.9-4,1.4-6.6,1.4
			C158.9,39.4,156.7,39,154.7,38.2z"/>
		<g opacity="0.75">
			<path fill="#FFFFFF" d="M198.3,4.7v34.9h-8.4V4.7H198.3z"/>
			<path fill="#FFFFFF" d="M217.1,1.2L206,43.5l-2.5-0.4l11.2-42.2L217.1,1.2z"/>
			<path fill="#FFFFFF" d="M233.9,5.7c-8.6,0-15.6,7.4-15.6,16.4s7,16.4,15.6,16.4c4.8,0,9.1-2.3,12-5.9c2.3-2.8,3.6-6.5,3.6-10.5
				C249.5,13.1,242.5,5.7,233.9,5.7z"/>
		</g>
	</g>
	<g>
		<path opacity="0.75" fill="#FFFFFF" d="M42.4,38.6c-1.3,0-2.3-0.7-2.9-1.9c-0.5-1.2-0.3-2.5,0.7-3.5c2.4-2.4,4.8-4.8,7.2-7.2
			c1.3-1.3,2.6-2.6,3.9-3.9c0.7-0.7,0.7-0.6,0-1.3c-3.7-3.7-7.4-7.4-11-11.1C39.1,8.5,39,6.8,40,5.5c1-1.3,3.1-1.6,4.4-0.5
			c0.4,0.3,0.7,0.6,1.1,1c4.3,4.3,8.7,8.7,13,13c0.4,0.4,0.8,0.9,1,1.5c0.4,1.2,0.2,2.4-0.7,3.3c-4.7,4.7-9.3,9.4-14,14
			C44,38.3,43.3,38.7,42.4,38.6z"/>
		<path fill="#FFFFFF" d="M34.7,0c2.1,0,3.5,1.9,3,4c-0.8,3-1.6,6.1-2.4,9.1c-2,7.4-4,14.9-6,22.3c-0.6,2.1-1.1,4.2-1.7,6.3
			c-0.7,2.3-3.2,3.2-5.1,1.7c-0.9-0.7-1.4-1.7-1.1-2.9c0.6-2.7,1.4-5.3,2.1-7.9c2.1-7.9,4.2-15.9,6.4-23.8c0.6-2.2,1.2-4.4,1.8-6.5
			C32,0.9,33.1,0,34.7,0z"/>
		<path fill="#FFFFFF" d="M17.2,38.6c-0.9-0.1-1.7-0.3-2.3-0.9C10.3,33,5.6,28.4,1,23.7c-1.3-1.3-1.3-3-0.2-4.4
			C1,19.2,1.1,19,1.3,18.8c4.5-4.5,9-9,13.5-13.5c1.2-1.2,2.7-1.4,4.1-0.6c1.8,1,2.1,3.4,0.6,4.9c-2.1,2.1-4.1,4.2-6.2,6.2
			C11.5,17.6,9.8,19.3,8,21c-0.4,0.4-0.3,0.6,0,0.9c3.8,3.7,7.5,7.5,11.2,11.2c1.2,1.2,1.4,2.8,0.4,4.1
			C19.1,38.1,18.2,38.5,17.2,38.6z"/>
	</g>
</g>
</svg>
